<?xml version="1.0" encoding="UTF-8"?>
<svg id="Calque_2" data-name="Calque 2" xmlns="http://www.w3.org/2000/svg" viewBox="0 0 115.57 115.57">
  <defs>
    <style>
      .cls-1 {
        fill: #f9f1e8;
      }

      .cls-2 {
        fill: #001a70;
      }

      .cls-3 {
        fill: #273648;
      }
    </style>
  </defs>
  <g id="Calque_1-2" data-name="Calque 1">
    <g>
      <path class="cls-3" d="m86.11,90.98c-8.92,0-15.94-2.84-21.07-7.84v32.42h40.82c5.36,0,9.71-4.35,9.71-9.71v-33.82c-5.54,11.76-16.79,18.94-29.46,18.94Z"/>
      <path class="cls-3" d="m21.09,71.09l-.06-52.57V0h-11.32C4.35,0,0,4.35,0,9.71v74.65c1.94.98,4.23,1.5,6.86,1.5,8.54,0,14.23-6.1,14.23-14.77Z"/>
      <path class="cls-3" d="m66.57,63.5c2.85,6.25,9.16,10.6,16.48,10.6,10,0,18.11-8.11,18.11-18.11s-8.11-18.11-18.11-18.11c-7.32,0-13.63,4.35-16.48,10.6l-23.11-27.21v43.11s0,0,0,0v6.83c-.05,15.43-8.54,27.4-22.26,32.24-4.3,1.52-9.11,2.34-14.34,2.34-2.39,0-4.68-.17-6.86-.49v.56c0,5.36,4.35,9.71,9.71,9.71h33.71v-24.82l23.15-27.25Z"/>
      <path class="cls-3" d="m65.04,21.14v5.81c5.13-5,12.16-7.84,21.07-7.84,12.66,0,23.92,7.25,29.46,19V9.71c0-5.36-4.35-9.71-9.71-9.71h-62.4v21.14h21.58Z"/>
      <path class="cls-1" d="m21.2,103.45c13.72-4.84,22.21-16.81,22.26-32.24v-6.83h0s0-43.11,0-43.11l-.03-.04v-.09h.03V0h-22.43v18.51s.06,52.57.06,52.57c0,8.68-5.69,14.77-14.23,14.77-2.63,0-4.92-.52-6.86-1.5v20.94c2.18.32,4.47.49,6.86.49,5.23,0,10.04-.82,14.34-2.34Z"/>
      <path class="cls-1" d="m86.11,19.11c-8.92,0-15.94,2.84-21.07,7.84v-5.81h-21.58v.13l23.11,27.21c2.85-6.25,9.16-10.6,16.48-10.6,10,0,18.11,8.11,18.11,18.11s-8.11,18.11-18.11,18.11c-7.32,0-13.63-4.35-16.48-10.6l-23.15,27.25v24.82h21.61v-32.42c5.13,5,12.16,7.84,21.07,7.84,12.66,0,23.92-7.18,29.46-18.94v-33.93c-5.54-11.75-16.79-19-29.46-19Z"/>
      <polygon class="cls-2" points="43.42 21.23 43.46 21.27 43.46 21.14 43.42 21.14 43.42 21.23"/>
      <path class="cls-3" d="m83.08,38.01c-7.3,0-13.59,4.34-16.44,10.57l-23.09-27.18-.12-.14v69.63l.12-.14,23.09-27.18c2.85,6.24,9.13,10.57,16.44,10.57,9.98,0,18.06-8.09,18.06-18.06s-8.09-18.06-18.06-18.06Z"/>
    </g>
  </g>
</svg>